<svg width="37" height="37" viewBox="0 0 37 37" fill="none" xmlns="http://www.w3.org/2000/svg">
<path d="M18.125 0C8.13062 0 0 8.13125 0 18.125C0 28.1187 8.13062 36.25 18.125 36.25C28.1194 36.25 36.25 28.1187 36.25 18.125C36.25 8.13125 28.1194 0 18.125 0ZM18.125 1.25C27.43 1.25 35 8.82 35 18.125C35 27.43 27.43 35 18.125 35C8.82 35 1.25 27.43 1.25 18.125C1.25 8.82 8.82 1.25 18.125 1.25ZM18.125 3.125C9.85437 3.125 3.125 9.85437 3.125 18.125C3.125 19.4456 3.2965 20.7559 3.63525 22.019C3.70963 22.2984 3.96266 22.4817 4.23828 22.4817C4.29203 22.4817 4.34748 22.4753 4.40186 22.4609C4.73561 22.3716 4.9319 22.0287 4.84253 21.6956C4.5319 20.5374 4.375 19.3363 4.375 18.125C4.375 10.5431 10.5431 4.375 18.125 4.375C21.6912 4.375 25.0722 5.73378 27.644 8.2019C27.8928 8.44003 28.2891 8.43419 28.5278 8.18481C28.7672 7.93606 28.7583 7.5404 28.5095 7.30103C25.7033 4.60853 22.0156 3.125 18.125 3.125ZM22.6221 9.8584C21.3736 9.89902 20.1415 10.4155 19.22 11.3989C18.3725 12.3039 17.9004 13.4975 17.9004 14.7375V15.1245C14.8316 14.7858 12.0173 13.2585 10.0623 10.8691C9.87038 10.6341 9.52333 10.5985 9.28833 10.791C9.23771 10.8323 9.19572 10.8813 9.1626 10.9375C8.2626 12.4881 8.28438 14.4075 9.21875 15.9375C8.93688 15.8237 8.61595 15.9596 8.5022 16.2415C8.4772 16.304 8.46316 16.3711 8.46191 16.438V16.5002C8.47191 17.9927 9.16254 19.398 10.3369 20.3186C10.0632 20.4186 9.91625 20.7149 10 20.9937C10.4825 22.4749 11.6438 23.6362 13.125 24.1187C11.6306 24.9312 9.92058 25.2604 8.2312 25.0623C7.92933 25.0291 7.65764 25.2474 7.62451 25.5493C7.60201 25.7549 7.69615 25.9556 7.86865 26.0693C9.93615 27.4062 12.344 28.1194 14.8059 28.125C18.4603 28.2106 21.9644 26.6721 24.375 23.9246C26.4837 21.5258 27.6599 18.4501 27.688 15.2563V14.9622C28.4917 14.3447 29.1873 13.5995 29.7498 12.7563C29.9154 12.5013 29.8436 12.1608 29.5886 11.9958C29.4355 11.8965 29.2428 11.8788 29.0747 11.9495H29.0564L28.6255 12.1252C28.8799 11.7384 29.077 11.3177 29.2126 10.8752C29.2933 10.5821 29.12 10.2796 28.8269 10.199C28.6869 10.1608 28.5393 10.179 28.4131 10.2502C27.7 10.674 26.9257 10.9862 26.1182 11.1755C25.1344 10.254 23.8706 9.81777 22.6221 9.8584ZM22.9089 10.9985C23.8894 11.034 24.833 11.4497 25.5249 12.1814C25.6543 12.3189 25.8459 12.38 26.0315 12.3438C26.4771 12.2556 26.9156 12.1343 27.3438 11.9812C27.0938 12.255 26.8062 12.49 26.488 12.6807C26.2405 12.8569 26.1824 13.201 26.3586 13.4485C26.4761 13.6135 26.6744 13.7005 26.875 13.6755C27.1375 13.6424 27.3981 13.5998 27.6562 13.5498C27.385 13.8023 27.0963 14.0374 26.7932 14.2505C26.6445 14.3592 26.5605 14.5349 26.5686 14.7192V15.2563C26.563 21.7595 21.2858 27.0259 14.7827 27.0203C13.274 27.019 11.7796 26.7277 10.3809 26.1621C12.0334 25.9602 13.6002 25.3121 14.9121 24.2871C15.1502 24.0984 15.1912 23.7525 15.0024 23.5144C14.9006 23.385 14.7457 23.3088 14.5813 23.3057C13.2782 23.2832 12.0781 22.5915 11.4062 21.4746C11.8181 21.4696 12.227 21.4137 12.6245 21.3062C12.917 21.2249 13.0891 20.9212 13.0078 20.6287C12.9522 20.4299 12.7904 20.2793 12.5879 20.238C11.1235 19.9374 9.97216 18.8037 9.64966 17.3438C10.0709 17.475 10.5085 17.5485 10.9497 17.5623C11.1953 17.5754 11.4187 17.4176 11.488 17.1814C11.563 16.9476 11.4727 16.6926 11.2683 16.5564C9.85519 15.6139 9.24304 13.8464 9.76929 12.2314C12.0493 14.6696 15.1855 16.1282 18.5193 16.3C18.6918 16.3113 18.8585 16.2391 18.9685 16.106C19.0779 15.9741 19.1196 15.7986 19.0808 15.6311C18.6121 13.5924 19.8851 11.5594 21.9238 11.0913C22.251 11.0162 22.5821 10.9867 22.9089 10.9985ZM31.9006 13.1897C31.8198 13.1819 31.7364 13.1897 31.6541 13.2153C31.3247 13.3185 31.1414 13.6696 31.2451 13.999C31.6626 15.3296 31.875 16.7175 31.875 18.125C31.875 19.8044 31.5751 21.4449 30.9851 23.0005C30.8632 23.3236 31.0258 23.6843 31.3489 23.8062C31.4214 23.8337 31.4961 23.8464 31.5698 23.8464C31.8223 23.8464 32.0602 23.693 32.1545 23.4436C32.7989 21.7455 33.125 19.9562 33.125 18.125C33.125 16.5906 32.8934 15.0768 32.4377 13.6243C32.3599 13.3777 32.1431 13.2132 31.9006 13.1897ZM30.1062 24.3762C29.8644 24.3456 29.6171 24.4598 29.4873 24.6838C29.3148 24.9826 29.4168 25.3646 29.7156 25.5371L30.7971 26.1633C30.8959 26.2208 31.0034 26.2476 31.1096 26.2476C31.3259 26.2476 31.536 26.1363 31.6516 25.9363C31.8241 25.6375 31.7221 25.2555 31.4233 25.083L30.3418 24.4568C30.267 24.413 30.1868 24.3864 30.1062 24.3762ZM28.374 26.6174C28.2144 26.627 28.059 26.6983 27.9443 26.8274C27.715 27.0861 27.7387 27.4812 27.9968 27.71L28.9319 28.5388C29.0506 28.6444 29.1982 28.6963 29.3457 28.6963C29.5182 28.6963 29.6901 28.6257 29.8145 28.4863C30.0438 28.2276 30.0201 27.8325 29.762 27.6038L28.8269 26.7749C28.6975 26.6602 28.5336 26.6079 28.374 26.6174ZM8.52905 28.2361C8.36937 28.2452 8.21283 28.3158 8.09814 28.4448C7.86877 28.7023 7.89069 29.0968 8.14819 29.3262C10.8963 31.7762 14.44 33.125 18.125 33.125C18.5181 33.125 18.9189 33.1092 19.3152 33.0786C19.6589 33.0517 19.9158 32.751 19.8889 32.4072C19.862 32.0629 19.5594 31.8035 19.2175 31.8323C15.4482 32.1235 11.7682 30.8786 8.98071 28.3936C8.85165 28.2786 8.68874 28.2269 8.52905 28.2361ZM26.4661 28.5022C26.3077 28.4798 26.1403 28.5175 26.0022 28.6206C25.7266 28.8281 25.6714 29.2202 25.8789 29.4958L26.6296 30.4956C26.7521 30.6587 26.9401 30.7446 27.1301 30.7446C27.2608 30.7446 27.3924 30.7033 27.5049 30.6189C27.7805 30.4114 27.8357 30.0205 27.6282 29.7449L26.8774 28.7451C26.774 28.6073 26.6244 28.5246 26.4661 28.5022ZM23.9844 29.9292C23.9032 29.9326 23.8208 29.9521 23.7427 29.989C23.4308 30.1365 23.2979 30.5097 23.446 30.8215L23.9819 31.9507C24.0888 32.1757 24.3134 32.3071 24.5471 32.3071C24.6365 32.3071 24.7276 32.2879 24.8145 32.2473C25.1263 32.0998 25.2592 31.7267 25.1111 31.4148L24.5752 30.2856C24.4646 30.0522 24.2279 29.919 23.9844 29.9292ZM21.5002 30.8582C21.4203 30.8452 21.3366 30.8485 21.2537 30.8691C20.9187 30.9516 20.714 31.2891 20.7959 31.6248L21.0925 32.8394C21.1625 33.1244 21.418 33.3154 21.6992 33.3154C21.7486 33.3154 21.7981 33.3096 21.8481 33.2971C22.1831 33.2146 22.389 32.8759 22.3071 32.5403L22.0093 31.3269C21.9474 31.0757 21.7401 30.8969 21.5002 30.8582Z" fill="#5B9ED9"/>
</svg>
