<svg width="47" height="49" viewBox="0 0 47 49" fill="none" xmlns="http://www.w3.org/2000/svg">
<circle cx="32.6583" cy="14.3416" r="13.3416" fill="#DFE9F2" stroke="#023373" stroke-width="2"/>
<path d="M39.2331 7.43948L38.4677 8.42718C38.0499 8.96641 37.9357 9.68142 38.1648 10.324L38.5845 11.5009L37.5968 10.7355C37.0576 10.3177 36.3426 10.2035 35.7 10.4326L34.5231 10.8523L35.2884 9.86462C35.7063 9.3254 35.8205 8.61039 35.5913 7.96785L35.1717 6.79091L36.1594 7.55626C36.6986 7.9741 37.4136 8.08828 38.0561 7.85916L39.2331 7.43948Z" stroke="#023373" stroke-width="2"/>
<circle cx="15.3861" cy="19.8912" r="14.3861" fill="#DFE9F2" stroke="#023373" stroke-width="2"/>
<path d="M10.4604 17.883L10.2614 19.5003C10.1782 20.1773 10.4457 20.8501 10.9712 21.2851L12.2264 22.3241L10.6092 22.1251C9.93211 22.0419 9.25929 22.3094 8.82432 22.8349L7.78535 24.0901L7.98429 22.4729C8.06758 21.7958 7.80002 21.123 7.27453 20.688L6.01933 19.6491L7.63655 19.848C8.31362 19.9313 8.98644 19.6637 9.42141 19.1382L10.4604 17.883Z" stroke="#023373" stroke-width="2"/>
<circle cx="28.9405" cy="31.9803" r="12.1458" transform="rotate(72.5357 28.9405 31.9803)" fill="#DFE9F2" stroke="#023373" stroke-width="2"/>
<path d="M28.7982 27.398L27.9971 27.5457C27.3263 27.6695 26.7648 28.1266 26.5076 28.7584L26.2004 29.5129L26.0526 28.7118C25.9289 28.041 25.4718 27.4795 24.8399 27.2223L24.0855 26.9151L24.8865 26.7673C25.5574 26.6436 26.1189 26.1865 26.3761 25.5546L26.6833 24.8002L26.831 25.6013C26.9548 26.2721 27.4119 26.8336 28.0437 27.0908L28.7982 27.398Z" stroke="#023373" stroke-width="2"/>
</svg>
