<svg width="37" height="37" viewBox="0 0 37 37" fill="none" xmlns="http://www.w3.org/2000/svg">
<path d="M31.1377 5.25437C27.7183 1.86375 23.1902 0 18.3783 0C18.352 0 18.3252 0 18.2989 0C13.4577 0.020625 8.91329 1.925 5.50454 5.36313C2.09579 8.80125 0.229544 13.3606 0.250169 18.2019C0.270794 23.0431 2.17517 27.5869 5.61267 30.9956C9.03204 34.3862 13.5602 36.25 18.372 36.25C18.3983 36.25 18.4252 36.25 18.4514 36.25C23.2927 36.2294 27.837 34.325 31.2458 30.8869C34.6545 27.4487 36.5208 22.8894 36.5002 18.0481C36.4795 13.2069 34.5752 8.66312 31.1377 5.25437ZM18.4464 35C17.6339 35.0025 16.8308 34.9462 16.0395 34.8369V22.2662H12.1733V18.1588H16.0395V15.4256C16.0395 10.9006 18.2439 8.91438 22.0045 8.91438C23.8058 8.91438 24.7577 9.04812 25.2089 9.10875V12.6937H22.6439C21.0477 12.6937 20.4902 14.2075 20.4902 15.9137V18.1588H25.1689L24.5339 22.2662H20.4902V34.8644C19.817 34.9481 19.1358 34.9969 18.4464 35ZM30.3583 30.0069C27.9727 32.4131 24.9895 34.0119 21.7402 34.6656V23.5162H24.5339C25.1508 23.5162 25.6752 23.0669 25.7695 22.4575L26.3945 18.415C26.412 18.3325 26.4208 18.2469 26.4208 18.1594C26.4208 17.4688 25.8627 16.9094 25.1727 16.9094H25.1695H21.7408V15.9144C21.7408 15.1787 21.8583 13.9444 22.6445 13.9444H25.2095C25.9002 13.9444 26.4595 13.385 26.4595 12.6944V9.10938C26.4595 8.48375 25.997 7.95438 25.3764 7.87063C24.8639 7.80125 23.8545 7.665 22.0052 7.665C17.3527 7.665 14.7902 10.4212 14.7902 15.4262V16.9094H12.1739C11.4833 16.9094 10.9239 17.4688 10.9239 18.1594V22.2669C10.9239 22.9575 11.4833 23.5169 12.1739 23.5169H14.7902V34.6144C11.6764 33.9431 8.81017 32.4056 6.49392 30.1087C3.29204 26.9344 1.51892 22.7037 1.50017 18.1962C1.48142 13.6887 3.21829 9.44375 6.39204 6.24313C9.56579 3.0425 13.7964 1.26937 18.3039 1.25C18.3289 1.25 18.3533 1.25 18.3783 1.25C22.8577 1.25 27.0739 2.98562 30.257 6.14187C33.4583 9.31562 35.2314 13.5462 35.2502 18.0537C35.2689 22.5612 33.532 26.8063 30.3583 30.0069ZM31.3964 25.5713C31.3958 25.5719 31.3952 25.5731 31.3952 25.5731C31.2227 25.8712 30.8427 25.9744 30.5433 25.8031L29.4583 25.1831C29.1589 25.0119 29.0545 24.63 29.2258 24.3306C29.2264 24.3294 29.227 24.3287 29.2277 24.3281C29.4002 24.03 29.7802 23.9269 30.0795 24.0981L31.1645 24.7181C31.4639 24.89 31.5683 25.2713 31.3964 25.5713ZM32.787 22.1738C32.7727 22.2288 32.7514 22.28 32.7239 22.3281C32.5864 22.5662 32.3027 22.6931 32.0239 22.6194L30.8152 22.3006C30.4808 22.2131 30.2827 21.8712 30.3702 21.5369C30.4589 21.2056 30.7995 21.0038 31.1339 21.0919L32.342 21.41C32.6758 21.4975 32.8745 21.8394 32.787 22.1738ZM26.4964 29.8856C26.6133 30.0856 26.6052 30.3256 26.497 30.5131C26.4445 30.6044 26.3677 30.6831 26.2708 30.74C25.972 30.9131 25.5895 30.8125 25.4158 30.515L24.7864 29.435C24.6127 29.1369 24.7133 28.7544 25.0114 28.5806C25.3095 28.4063 25.6927 28.5069 25.867 28.8063L26.4964 29.8856ZM33.252 18.5325C33.252 18.6475 33.222 18.755 33.1683 18.8475C33.0608 19.0337 32.8602 19.1587 32.6289 19.16L31.3789 19.165C31.0339 19.1663 30.7527 18.8881 30.7514 18.5431C30.7495 18.1962 31.0277 17.9169 31.3739 17.915L32.6245 17.9106C32.9702 17.9094 33.2508 18.1875 33.252 18.5325ZM29.1702 27.61C29.3764 27.8144 29.4102 28.1269 29.272 28.3663C29.2452 28.4125 29.212 28.455 29.1739 28.4944C28.9308 28.7394 28.5352 28.7413 28.2902 28.4975L27.4027 27.6169C27.157 27.3731 27.1608 26.9744 27.3995 26.7331C27.6427 26.4881 28.0383 26.4869 28.2833 26.73L29.1702 27.61ZM15.3502 4.13312C15.407 4.37062 15.3195 4.61062 15.1439 4.75812C15.072 4.81875 14.9864 4.86375 14.8889 4.88688C14.4239 4.99875 13.9627 5.13688 13.5164 5.29813C13.1908 5.415 12.8327 5.24688 12.7164 4.9225C12.5989 4.5975 12.7683 4.23937 13.092 4.1225C13.582 3.94625 14.0877 3.79438 14.5958 3.6725C14.932 3.59125 15.2695 3.7975 15.3502 4.13312ZM11.3877 5.55938C11.5664 5.85438 11.4752 6.23375 11.1764 6.41813C8.61892 7.96875 6.65017 10.3619 5.63392 13.1581C5.59517 13.265 5.53079 13.3544 5.44954 13.4225C5.28392 13.5619 5.05079 13.6119 4.83454 13.5325C4.50954 13.415 4.34267 13.0563 4.46017 12.7313C5.57267 9.66813 7.72704 7.04625 10.5289 5.34813C10.8245 5.17 11.2095 5.26438 11.3877 5.55938Z" fill="#5B9ED9"/>
</svg>
