<svg width="44" height="48" viewBox="0 0 44 48" fill="none" xmlns="http://www.w3.org/2000/svg">
<path d="M43.5202 14.254C43.5202 14.2399 43.5202 14.2259 43.5061 14.2259C43.5061 14.1978 43.4921 14.1837 43.4921 14.1556C43.4921 14.1416 43.4781 14.1135 43.4781 14.0995C43.4781 14.0854 43.464 14.0714 43.464 14.0573C43.4359 13.9871 43.4078 13.931 43.3657 13.8748L34.2376 0.463429C34.041 0.16852 33.718 0 33.3669 0H24.4353H19.1129H10.1814C9.83031 0 9.50731 0.16852 9.31071 0.463429L0.182563 13.8748C0.140433 13.931 0.112346 14.0012 0.0842596 14.0573C0.0842596 14.0714 0.0702165 14.0854 0.0702165 14.0995C0.0561732 14.1135 0.0561734 14.1416 0.0561734 14.1556C0.0561734 14.1837 0.0421303 14.1978 0.0421303 14.2259C0.0421303 14.2399 0.0421295 14.254 0.0280862 14.254C0.0140429 14.3242 0 14.3944 0 14.4646V46.9468C0 47.5225 0.477472 48 1.05325 48H42.495C43.0708 48 43.5483 47.5225 43.5483 46.9468V14.4646C43.5342 14.3944 43.5342 14.3242 43.5202 14.254ZM40.4868 13.4114H26.8789L25.6009 2.1065H32.7911L40.4868 13.4114ZM18.6355 15.5178H24.8847V23.2417L22.371 21.4722C22.1884 21.3458 21.9778 21.2756 21.7671 21.2756C21.5565 21.2756 21.3458 21.3458 21.1633 21.4722L18.6495 23.2417V15.5178H18.6355ZM23.4804 2.1065L24.7583 13.4114H18.7619L20.0398 2.1065H23.4804ZM10.7431 2.1065H17.9333L16.6554 13.4114H3.0474L10.7431 2.1065ZM41.4277 45.8935H2.10649V15.5178H16.543V25.2639C16.543 25.6571 16.7677 26.0222 17.1047 26.2048C17.4558 26.3874 17.8771 26.3593 18.2001 26.1346L21.7671 23.6208L25.3341 26.1346C25.5167 26.261 25.7273 26.3312 25.938 26.3312C26.1065 26.3312 26.275 26.2891 26.4295 26.2188C26.7806 26.0363 26.9912 25.6712 26.9912 25.2779V15.5319H41.4277V45.8935Z" fill="#023373"/>
<path d="M14.0433 34.4482H6.57229C5.99652 34.4482 5.51904 34.9257 5.51904 35.5014C5.51904 36.0772 5.99652 36.5547 6.57229 36.5547H14.0433C14.6191 36.5547 15.0966 36.0772 15.0966 35.5014C15.0966 34.9257 14.6191 34.4482 14.0433 34.4482Z" fill="#023373"/>
<path d="M10.3078 38.8718H6.57229C5.99652 38.8718 5.51904 39.3493 5.51904 39.9251C5.51904 40.5008 5.99652 40.9783 6.57229 40.9783H10.3078C10.8836 40.9783 11.3611 40.5008 11.3611 39.9251C11.3611 39.3493 10.8836 38.8718 10.3078 38.8718Z" fill="#023373"/>
</svg>
