<svg width="37" height="37" viewBox="0 0 37 37" fill="none" xmlns="http://www.w3.org/2000/svg">
<path d="M18.6254 0C8.63162 0 0.500366 8.13062 0.500366 18.125C0.500366 28.1194 8.63162 36.25 18.6254 36.25C28.6191 36.25 36.7504 28.1194 36.7504 18.125C36.7504 8.13062 28.6191 0 18.6254 0ZM18.6254 1.25C27.9304 1.25 35.5004 8.82 35.5004 18.125C35.5004 27.43 27.9304 35 18.6254 35C9.32037 35 1.75037 27.43 1.75037 18.125C1.75037 8.82 9.32037 1.25 18.6254 1.25ZM18.6254 3.75C10.6985 3.75 4.25037 10.1987 4.25037 18.125C4.25037 18.47 4.52974 18.75 4.87537 18.75C5.22099 18.75 5.50037 18.47 5.50037 18.125C5.50037 10.8875 11.3885 5 18.6254 5C25.8622 5 31.7504 10.8875 31.7504 18.125C31.7504 25.3625 25.8622 31.25 18.6254 31.25C18.2797 31.25 18.0004 31.53 18.0004 31.875C18.0004 32.22 18.2797 32.5 18.6254 32.5C26.5522 32.5 33.0004 26.0513 33.0004 18.125C33.0004 10.1987 26.5522 3.75 18.6254 3.75ZM24.4799 10.6409C24.2396 10.6174 23.9762 10.657 23.7096 10.7617C23.2496 10.9436 10.7475 16.2146 10.2562 16.4233C9.74248 16.5983 9.17394 17.0394 9.25769 17.7063C9.35269 18.4638 10.144 18.765 10.2428 18.8L13.2897 19.8267C13.5453 20.6648 14.2459 22.9598 14.4091 23.4729C14.4903 23.731 14.6964 24.3801 15.172 24.5264C15.5357 24.6582 15.8963 24.5326 16.1388 24.3445L17.9186 22.7222L20.8788 24.9915L21.0094 25.0684C21.2788 25.1859 21.5197 25.2283 21.726 25.2283C21.946 25.2283 22.1268 25.1801 22.2631 25.1245C22.8312 24.8914 23.059 24.3581 23.0834 24.2981L25.4381 12.2864C25.6106 11.5189 25.3547 11.1078 25.1097 10.8984C24.9372 10.7513 24.7201 10.6643 24.4799 10.6409ZM24.2394 11.8994C24.235 11.935 24.2281 11.9782 24.2162 12.03L21.9078 23.8586C21.8847 23.8918 21.8419 23.9473 21.7906 23.9685C21.7288 23.9929 21.6403 23.9728 21.5709 23.9478L17.849 21.0925L15.6163 23.1323L16.0875 20.1343C16.0875 20.1343 21.8727 14.7418 22.1215 14.5093C22.3702 14.2774 22.2875 14.2273 22.2875 14.2273C22.3043 13.9454 21.9115 14.1467 21.9115 14.1467L14.3004 18.8599L14.2968 18.8464L10.6591 17.6221C10.6534 17.6196 10.647 17.6172 10.6407 17.6147C10.6607 17.606 10.6812 17.5978 10.7018 17.5903C15.1987 15.6941 23.7942 12.0713 24.1674 11.9238C24.193 11.9132 24.2175 11.9057 24.2394 11.8994ZM6.12781 21.272C6.04708 21.2632 5.96266 21.2699 5.88 21.2952L4.6825 21.6541C4.35187 21.7534 4.16504 22.101 4.26379 22.4316C4.34504 22.7029 4.59256 22.8784 4.86194 22.8784C4.92069 22.8784 4.98138 22.8697 5.04138 22.8516L6.23889 22.4927C6.56952 22.3933 6.75756 22.0439 6.65881 21.7139C6.58475 21.4664 6.37001 21.2983 6.12781 21.272ZM7.26794 24.2261C7.18765 24.2373 7.10854 24.2647 7.03479 24.3091L5.96179 24.9512C5.66492 25.1287 5.56885 25.5119 5.74573 25.8081C5.8626 26.0037 6.06971 26.1121 6.28284 26.1121C6.39221 26.1121 6.50266 26.0848 6.60266 26.0242L7.67566 25.3821C7.97253 25.2046 8.0686 24.8214 7.89172 24.5251C7.7586 24.303 7.50882 24.1923 7.26794 24.2261ZM9.33459 26.77C9.17475 26.7697 9.01489 26.8297 8.8927 26.9519L8.00769 27.8357C7.76269 28.0794 7.76272 28.4751 8.00647 28.7195C8.12834 28.842 8.28896 28.9026 8.44958 28.9026C8.60958 28.9026 8.76838 28.842 8.89026 28.7207L9.77527 27.8369C10.0203 27.5932 10.0202 27.1987 9.77649 26.9543C9.6543 26.8322 9.49444 26.7703 9.33459 26.77ZM11.9652 28.761C11.724 28.7266 11.4746 28.8354 11.3414 29.0576L10.6981 30.1294C10.5206 30.4256 10.6155 30.8088 10.9117 30.9863C11.0124 31.047 11.124 31.0767 11.234 31.0767C11.4465 31.0767 11.653 30.9677 11.7699 30.7727L12.4132 29.7021C12.5907 29.4059 12.4958 29.0215 12.1996 28.844C12.1255 28.7995 12.0456 28.7724 11.9652 28.761ZM14.7606 30.061C14.5183 30.0871 14.3041 30.2542 14.2296 30.5017L13.8683 31.698C13.7683 32.0286 13.9558 32.378 14.2858 32.478C14.3464 32.4962 14.4064 32.5049 14.4664 32.5049C14.7346 32.5049 14.9833 32.3305 15.0646 32.0605L15.4259 30.863C15.5259 30.5324 15.3384 30.1842 15.0084 30.0842C14.9256 30.0594 14.8414 30.0523 14.7606 30.061Z" fill="#5B9ED9"/>
</svg>
