<svg width="66" height="48" viewBox="0 0 66 48" fill="none" xmlns="http://www.w3.org/2000/svg">
<path d="M64.5408 40.6709H59.4185V18.85C59.4185 15.5717 57.2671 11.9861 53.8864 11.9861H34.5242L39.0318 7.58098L39.1342 7.47853C40.3636 5.73696 40.6709 2.76603 38.8269 0.92201C38.2122 0.307337 37.3927 0 36.4706 0C35.3437 0 34.012 0.512228 32.7826 1.43424C31.5533 0.512228 30.3239 0 29.197 0C28.275 0 27.4554 0.307337 26.8408 0.92201C24.9967 2.76603 24.8943 5.73696 26.7383 7.68342L31.2459 12.0886H12.6008C9.32255 11.9861 6.14674 15.3668 6.14674 18.85V40.6709H1.02446C0.409783 40.6709 0 41.1832 0 41.6954C0 45.0761 2.76603 47.8421 6.14674 47.8421H59.4185C62.7992 47.8421 65.5652 45.0761 65.5652 41.6954C65.5652 41.1832 65.1554 40.6709 64.5408 40.6709ZM28.1726 2.25381C28.3774 2.04891 28.6848 1.84402 29.0946 1.84402C29.9141 1.84402 31.041 2.4587 32.0655 3.27826C32.4753 3.68804 33.0899 3.68804 33.4997 3.27826C34.4217 2.35625 35.6511 1.84402 36.4706 1.84402C36.8804 1.84402 37.1878 1.94647 37.3927 2.25381C38.4171 3.27826 38.3147 5.01984 37.5976 6.14674L32.8851 10.7568L28.1726 6.14674C27.1481 5.01984 27.1481 3.27826 28.1726 2.25381ZM8.19565 32.4753H57.3696V34.5242H8.19565V32.4753ZM8.19565 31.4508V25.4065C9.32255 26.431 10.7568 27.0457 12.2935 27.0457C14.4448 27.0457 16.2889 25.9187 17.4158 24.1772C18.5427 25.9187 20.3867 27.0457 22.538 27.0457C24.6894 27.0457 26.5334 25.9187 27.6603 24.1772C28.7872 25.9187 30.6313 27.0457 32.7826 27.0457C34.934 27.0457 36.778 25.9187 37.9049 24.1772C39.0318 25.9187 40.8758 27.0457 43.0272 27.0457C45.1785 27.0457 47.0226 25.9187 48.1495 24.1772C49.2764 25.9187 51.1204 27.0457 53.2717 27.0457C54.8084 27.0457 56.2427 26.431 57.3696 25.4065V31.4508H8.19565ZM8.19565 18.85C8.19565 16.4938 10.5519 14.0351 12.6008 14.0351H53.784C55.8329 14.0351 57.2671 16.4938 57.2671 18.85V20.5916C57.2671 22.9478 55.4231 24.8943 53.1693 24.8943C50.9155 24.8943 49.0715 22.9478 49.0715 20.5916C49.0715 19.9769 48.6617 19.5671 48.047 19.5671C47.4323 19.5671 47.0226 19.9769 47.0226 20.5916C47.0226 22.9478 45.1785 24.8943 42.9247 24.8943C40.6709 24.8943 38.8269 22.9478 38.8269 20.5916C38.8269 19.9769 38.4171 19.5671 37.8024 19.5671C37.1878 19.5671 36.778 19.9769 36.778 20.5916C36.778 22.9478 34.934 24.8943 32.6802 24.8943C30.4264 24.8943 28.5823 22.9478 28.5823 20.5916C28.5823 19.9769 28.1726 19.5671 27.5579 19.5671C26.9432 19.5671 26.5334 19.9769 26.5334 20.5916C26.5334 22.9478 24.6894 24.8943 22.4356 24.8943C20.1818 24.8943 18.3378 22.9478 18.3378 20.5916C18.3378 19.9769 17.928 19.5671 17.3133 19.5671C16.6986 19.5671 16.2889 19.9769 16.2889 20.5916C16.2889 22.9478 14.4448 24.8943 12.191 24.8943C9.93723 24.8943 8.09321 22.9478 8.09321 20.5916V18.85H8.19565ZM8.19565 35.5486H57.3696V40.6709H8.19565V35.5486ZM59.4185 45.7932H6.14674C4.30272 45.7932 2.66359 44.7687 2.2538 42.7198H63.4139C62.9016 44.7687 61.3649 45.7932 59.4185 45.7932Z" fill="#023373"/>
</svg>
