<svg width="101" height="62" viewBox="0 0 101 62" fill="none" xmlns="http://www.w3.org/2000/svg">
<path d="M38 10.8361L51.537 1C51.537 1 58 3.62865 58 10.8361H38Z" stroke="#404040" stroke-width="0.93" stroke-linejoin="round"/>
<path d="M58 10.8361H38V21H58V10.8361Z" stroke="#404040" stroke-width="0.93" stroke-linejoin="round"/>
<path d="M49.1736 10.8361H38V14.5436C38 14.9079 38.1435 15.2573 38.399 15.5149C38.6544 15.7725 39.0009 15.9173 39.3621 15.9173C39.7234 15.9173 40.0699 15.7725 40.3253 15.5149C40.5808 15.2573 40.7243 14.9079 40.7243 14.5436V12.2755C40.7243 11.9176 40.8653 11.5743 41.1163 11.3211C41.3673 11.068 41.7077 10.9258 42.0626 10.9258C42.4176 10.9258 42.758 11.068 43.009 11.3211C43.26 11.5743 43.401 11.9176 43.401 12.2755V17.1696C43.401 17.5768 43.5614 17.9673 43.8469 18.2552C44.1325 18.5432 44.5197 18.7049 44.9235 18.7049C45.3273 18.7049 45.7145 18.5432 46 18.2552C46.2856 17.9673 46.446 17.5768 46.446 17.1696V13.8109C46.446 13.6302 46.4813 13.4512 46.5498 13.2843C46.6184 13.1173 46.7189 12.9656 46.8456 12.8379C46.9723 12.7101 47.1228 12.6087 47.2883 12.5396C47.4539 12.4704 47.6313 12.4348 47.8105 12.4348C47.9897 12.4348 48.1671 12.4704 48.3327 12.5396C48.4982 12.6087 48.6487 12.7101 48.7754 12.8379C48.9021 12.9656 49.0026 13.1173 49.0712 13.2843C49.1397 13.4512 49.175 13.6302 49.175 13.8109V15.2139C49.1819 15.6023 49.3398 15.9724 49.6146 16.2446C49.8894 16.5168 50.2592 16.6693 50.6445 16.6693C51.0297 16.6693 51.3995 16.5168 51.6743 16.2446C51.9491 15.9724 52.107 15.6023 52.1139 15.2139V12.2755H52.1339C52.1812 11.8796 52.3703 11.5148 52.6657 11.2498C52.9611 10.9847 53.3423 10.8376 53.7377 10.8361H49.1703H49.1736Z" stroke="#404040" stroke-width="0.93" stroke-linejoin="round"/>
<path d="M55.3109 10.8361H53.7376C54.12 10.8369 54.4888 10.9887 54.7747 11.2629C55.0605 11.5372 55.2436 11.9149 55.2893 12.3248H55.3086V13.3173C55.3086 13.7027 55.4504 14.0723 55.7028 14.3449C55.9551 14.6174 56.2974 14.7705 56.6543 14.7705C57.0112 14.7705 57.3534 14.6174 57.6058 14.3449C57.8581 14.0723 57.9999 13.7027 57.9999 13.3173V10.8361H55.3109Z" stroke="#404040" stroke-width="0.93" stroke-linejoin="round"/>
<path d="M51.7704 16.082H57.9999" stroke="#404040" stroke-width="0.93" stroke-linejoin="round"/>
<path d="M49.1476 16.082H46.1967" stroke="#404040" stroke-width="0.93" stroke-linejoin="round"/>
<path d="M43.2459 16.082H38" stroke="#404040" stroke-width="0.93" stroke-linejoin="round"/>
<path d="M5.112 52.132C3.744 52.132 2.712 51.904 2.016 51.448C1.32 50.992 0.960005 50.236 0.936005 49.18C0.936005 49.06 1.02 49 1.188 49C1.38 49 1.692 49.048 2.124 49.144C2.556 49.264 3.396 49.324 4.644 49.324C6.708 49.324 8.616 49.096 10.368 48.64C12.144 48.184 13.68 47.56 14.976 46.768C16.272 45.976 17.268 45.088 17.964 44.104C18.684 43.096 19.044 42.052 19.044 40.972C19.044 40.012 18.768 39.244 18.216 38.668C17.664 38.068 16.932 37.612 16.02 37.3C15.108 36.988 14.112 36.784 13.032 36.688C11.976 36.592 10.932 36.544 9.9 36.544C9.444 36.544 8.976 36.556 8.49601 36.58C8.04 36.58 7.608 36.58 7.2 36.58C6.648 38.476 6.108 40.408 5.58 42.376C5.076 44.32 4.548 46.228 3.99601 48.1C3.34801 48.1 2.796 47.92 2.34 47.56C1.908 47.2 1.692 46.768 1.692 46.264C1.692 46 1.74 45.688 1.836 45.328C1.956 44.944 2.076 44.572 2.196 44.212C2.34 43.732 2.592 42.94 2.952 41.836C3.312 40.732 3.744 39.436 4.248 37.948C4.75201 36.46 5.304 34.9 5.904 33.268C6.528 31.636 7.16401 30.04 7.81201 28.48C8.46001 26.896 9.09601 25.492 9.72001 24.268C8.73601 24.46 7.90801 24.712 7.236 25.024C6.564 25.312 6.03601 25.576 5.652 25.816C5.292 26.056 5.028 26.176 4.86 26.176C4.716 26.176 4.54801 26.116 4.356 25.996C4.164 25.876 3.984 25.732 3.816 25.564C3.672 25.372 3.6 25.204 3.6 25.06C4.824 24.556 6.10801 24.1 7.45201 23.692C8.79601 23.284 10.416 23.08 12.312 23.08C13.128 23.08 14.028 23.152 15.012 23.296C15.996 23.416 16.932 23.68 17.82 24.088C18.708 24.472 19.44 25.048 20.016 25.816C20.592 26.584 20.88 27.592 20.88 28.84C20.88 29.968 20.628 30.94 20.124 31.756C19.644 32.548 19.008 33.22 18.216 33.772C17.424 34.3 16.56 34.732 15.624 35.068C14.688 35.38 13.764 35.62 12.852 35.788C14.532 35.932 15.9 36.208 16.956 36.616C18.036 37.024 18.852 37.516 19.404 38.092C19.98 38.644 20.376 39.232 20.592 39.856C20.808 40.456 20.916 41.032 20.916 41.584C20.916 43 20.544 44.272 19.8 45.4C19.08 46.528 18.12 47.512 16.92 48.352C15.744 49.192 14.448 49.888 13.032 50.44C11.64 51.016 10.248 51.436 8.856 51.7C7.464 51.988 6.216 52.132 5.112 52.132ZM7.45201 35.572C8.79601 35.524 10.116 35.368 11.412 35.104C12.708 34.84 13.884 34.444 14.94 33.916C16.02 33.364 16.884 32.656 17.532 31.792C18.18 30.928 18.504 29.848 18.504 28.552C18.504 27.352 18.204 26.428 17.604 25.78C17.004 25.108 16.224 24.652 15.264 24.412C14.328 24.148 13.32 24.016 12.24 24.016C12.168 24.016 12.084 24.016 11.988 24.016C11.916 24.016 11.832 24.016 11.736 24.016C10.896 25.672 10.128 27.496 9.43201 29.488C8.73601 31.456 8.076 33.484 7.45201 35.572Z" fill="#404040"/>
<path d="M24.2305 50.692C23.4625 50.692 22.8145 50.44 22.2865 49.936C21.7345 49.432 21.4585 48.664 21.4585 47.632C21.4585 46.792 21.6505 45.88 22.0345 44.896C22.4185 43.888 22.9465 42.904 23.6185 41.944C24.2905 40.96 25.0465 40.072 25.8865 39.28C26.7505 38.488 27.6625 37.852 28.6225 37.372C29.5825 36.892 30.5425 36.652 31.5025 36.652C32.4625 36.652 33.2665 36.904 33.9145 37.408C34.5865 37.912 34.9225 38.584 34.9225 39.424C34.9225 40.024 34.7305 40.444 34.3465 40.684C33.9865 40.924 33.5305 41.032 32.9785 41.008C33.0265 40.792 33.0625 40.576 33.0865 40.36C33.1345 40.144 33.1585 39.928 33.1585 39.712C33.1585 39.184 33.0385 38.728 32.7985 38.344C32.5585 37.936 32.1145 37.732 31.4665 37.732C30.7945 37.732 30.1105 37.972 29.4145 38.452C28.7185 38.908 28.0465 39.52 27.3985 40.288C26.7745 41.056 26.2105 41.896 25.7065 42.808C25.2025 43.696 24.8065 44.572 24.5185 45.436C24.2305 46.3 24.0865 47.08 24.0865 47.776C24.0865 48.664 24.3865 49.108 24.9865 49.108C25.5385 49.108 26.1385 48.844 26.7865 48.316C27.4585 47.788 28.1305 47.128 28.8025 46.336C29.4985 45.52 30.1585 44.68 30.7825 43.816C31.4065 42.952 31.9585 42.184 32.4385 41.512C32.5105 41.368 32.5825 41.296 32.6545 41.296C32.7745 41.32 32.9545 41.368 33.1945 41.44C33.4345 41.512 33.6505 41.62 33.8425 41.764C34.0345 41.908 34.1305 42.088 34.1305 42.304C34.1305 42.52 34.0225 42.82 33.8065 43.204C33.6145 43.564 33.3745 43.984 33.0865 44.464C32.8225 44.92 32.5825 45.388 32.3665 45.868C32.1745 46.348 32.0785 46.792 32.0785 47.2C32.0785 47.56 32.1625 47.908 32.3305 48.244C32.5225 48.556 32.8225 48.712 33.2305 48.712C33.8545 48.712 34.6945 48.256 35.7505 47.344C36.8065 46.408 37.8745 44.968 38.9545 43.024L39.4225 43.492C38.8945 44.788 38.2345 45.94 37.4425 46.948C36.6505 47.932 35.7985 48.7 34.8865 49.252C33.9985 49.804 33.1105 50.08 32.2225 50.08C31.3105 50.08 30.6265 49.792 30.1705 49.216C29.7385 48.664 29.5225 48.064 29.5225 47.416C29.5225 47.296 29.5225 47.176 29.5225 47.056C29.5465 46.936 29.5705 46.804 29.5945 46.66C28.5865 47.98 27.6625 48.976 26.8225 49.648C25.9825 50.344 25.1185 50.692 24.2305 50.692Z" fill="#404040"/>
<path d="M49.1588 50.368C48.4628 50.368 47.8629 50.128 47.3588 49.648C46.8548 49.192 46.4468 48.616 46.1348 47.92C45.8468 47.224 45.6308 46.504 45.4868 45.76C45.3428 45.016 45.2708 44.368 45.2708 43.816C45.5588 43.792 45.9548 43.72 46.4589 43.6C46.9628 43.456 47.4788 43.252 48.0068 42.988C48.5348 42.7 48.9788 42.352 49.3388 41.944C49.6988 41.512 49.8788 41.008 49.8788 40.432C49.8788 39.952 49.7108 39.58 49.3748 39.316C49.0628 39.028 48.6549 38.884 48.1508 38.884C47.4308 38.884 46.7589 39.136 46.1348 39.64C45.5108 40.12 44.9348 40.756 44.4068 41.548C43.9028 42.34 43.4348 43.192 43.0028 44.104C42.5948 44.992 42.2348 45.856 41.9228 46.696C41.6348 47.512 41.3949 48.196 41.2029 48.748C41.0108 49.276 40.7828 49.636 40.5188 49.828C40.2788 50.02 39.9908 50.116 39.6549 50.116C39.3189 50.116 39.0549 49.984 38.8629 49.72C38.6708 49.48 38.5268 49.12 38.4308 48.64C38.3588 48.16 38.3228 47.596 38.3228 46.948C38.3228 45.628 38.5268 44.14 38.9348 42.484C39.3428 40.804 39.8828 39.076 40.5548 37.3C41.2508 35.524 42.0068 33.808 42.8228 32.152C43.6388 30.496 44.4548 28.996 45.2708 27.652C46.1108 26.308 46.8788 25.252 47.5748 24.484C48.2948 23.692 48.8828 23.296 49.3388 23.296C49.6988 23.296 49.9869 23.536 50.2029 24.016C50.4429 24.472 50.5629 25.048 50.5629 25.744C50.5629 26.56 50.3829 27.472 50.0229 28.48C49.6628 29.488 49.1469 30.508 48.4748 31.54C47.8269 32.572 47.0468 33.544 46.1348 34.456C45.2229 35.368 44.2388 36.148 43.1828 36.796C42.4148 38.596 41.8388 40.372 41.4548 42.124C41.0709 43.852 40.8668 45.328 40.8428 46.552C41.2509 45.568 41.7188 44.524 42.2468 43.42C42.7989 42.316 43.4108 41.26 44.0828 40.252C44.7788 39.244 45.5229 38.428 46.3148 37.804C47.1308 37.156 47.9828 36.832 48.8708 36.832C49.7828 36.832 50.5629 37.156 51.2108 37.804C51.8829 38.452 52.2188 39.232 52.2188 40.144C52.2188 40.912 52.0149 41.56 51.6068 42.088C51.2229 42.616 50.7428 43.048 50.1668 43.384C49.6148 43.72 49.0508 43.972 48.4748 44.14C47.9229 44.284 47.4548 44.368 47.0709 44.392C47.1189 44.608 47.2029 44.968 47.3228 45.472C47.4428 45.976 47.6109 46.492 47.8269 47.02C48.0668 47.524 48.3549 47.968 48.6908 48.352C49.0268 48.712 49.4348 48.892 49.9148 48.892C50.5628 48.892 51.1988 48.628 51.8228 48.1C52.4708 47.548 53.0828 46.828 53.6588 45.94C54.2348 45.052 54.7628 44.056 55.2428 42.952L55.6389 43.384C55.2789 44.584 54.7508 45.712 54.0548 46.768C53.3588 47.824 52.5788 48.688 51.7148 49.36C50.8748 50.032 50.0228 50.368 49.1588 50.368ZM43.9389 34.996C44.8749 34.228 45.7388 33.328 46.5308 32.296C47.3228 31.24 47.9589 30.208 48.4389 29.2C48.9188 28.168 49.1588 27.304 49.1588 26.608C49.1588 26.536 49.1588 26.488 49.1588 26.464C49.1588 26.416 49.1348 26.38 49.0868 26.356C48.8468 26.404 48.4389 26.836 47.8629 27.652C47.3109 28.444 46.6868 29.488 45.9908 30.784C45.2948 32.08 44.6109 33.484 43.9389 34.996Z" fill="#404040"/>
<path d="M58.453 50.584C56.965 50.584 55.837 50.176 55.069 49.36C54.301 48.544 53.917 47.536 53.917 46.336C53.917 45.28 54.181 44.152 54.709 42.952C55.261 41.752 55.981 40.624 56.869 39.568C57.781 38.512 58.777 37.66 59.857 37.012C60.961 36.364 62.053 36.04 63.133 36.04C63.709 36.04 64.237 36.196 64.717 36.508C65.221 36.796 65.473 37.396 65.473 38.308C65.473 39.22 65.209 40.072 64.681 40.864C64.153 41.656 63.445 42.364 62.557 42.988C61.669 43.612 60.697 44.128 59.641 44.536C58.609 44.92 57.565 45.172 56.509 45.292C56.461 45.484 56.425 45.676 56.401 45.868C56.401 46.036 56.401 46.216 56.401 46.408C56.401 46.696 56.425 47.008 56.473 47.344C56.545 47.68 56.677 48.004 56.869 48.316C57.085 48.628 57.373 48.88 57.733 49.072C58.117 49.264 58.609 49.36 59.209 49.36C60.241 49.36 61.261 49.072 62.269 48.496C63.277 47.92 64.213 47.164 65.077 46.228C65.965 45.268 66.709 44.212 67.309 43.06L67.849 43.456C67.201 44.896 66.373 46.156 65.365 47.236C64.357 48.292 63.253 49.108 62.053 49.684C60.877 50.284 59.677 50.584 58.453 50.584ZM56.761 44.392C57.409 44.224 58.129 43.936 58.921 43.528C59.713 43.12 60.481 42.64 61.225 42.088C61.969 41.512 62.581 40.888 63.061 40.216C63.541 39.52 63.781 38.8 63.781 38.056C63.781 37.792 63.733 37.6 63.637 37.48C63.541 37.36 63.349 37.3 63.061 37.3C62.509 37.3 61.909 37.516 61.261 37.948C60.637 38.356 60.025 38.908 59.425 39.604C58.849 40.3 58.321 41.068 57.841 41.908C57.361 42.724 57.001 43.552 56.761 44.392Z" fill="#404040"/>
<path d="M72.9228 49.936C72.0828 49.936 71.4108 49.708 70.9068 49.252C70.4268 48.82 70.1868 48.244 70.1868 47.524C70.1868 46.804 70.3548 46.06 70.6908 45.292C71.0268 44.5 71.3508 43.72 71.6628 42.952C71.9988 42.184 72.1668 41.5 72.1668 40.9C72.1668 40.204 71.9628 39.676 71.5548 39.316C71.1468 38.932 70.7028 38.596 70.2228 38.308C69.6948 39.676 69.1188 40.996 68.4948 42.268C67.8708 43.516 67.3668 44.476 66.9828 45.148L66.5868 44.392C66.9228 43.768 67.3548 42.868 67.8828 41.692C68.4348 40.492 68.9748 39.148 69.5028 37.66C69.2628 37.42 69.1428 37.12 69.1428 36.76C69.1428 36.064 69.3348 35.476 69.7188 34.996C70.1268 34.516 70.4508 34.276 70.6908 34.276C70.9788 34.276 71.1468 34.408 71.1948 34.672C71.2668 34.912 71.3028 35.092 71.3028 35.212C71.3028 35.332 71.2428 35.56 71.1228 35.896C71.0028 36.232 70.9308 36.448 70.9068 36.544C70.9308 36.856 71.1228 37.156 71.4828 37.444C71.8668 37.708 72.2988 38.008 72.7788 38.344C73.2828 38.68 73.7148 39.1 74.0748 39.604C74.4588 40.108 74.6508 40.744 74.6508 41.512C74.6508 42.208 74.4948 42.928 74.1828 43.672C73.8948 44.416 73.5948 45.112 73.2828 45.76C72.9948 46.408 72.8508 46.984 72.8508 47.488C72.8508 47.872 72.9468 48.136 73.1388 48.28C73.3548 48.4 73.5948 48.46 73.8588 48.46C74.4348 48.46 75.0228 48.292 75.6228 47.956C76.2468 47.596 76.8468 47.14 77.4228 46.588C78.0228 46.036 78.5508 45.46 79.0068 44.86C79.4628 44.236 79.7988 43.66 80.0148 43.132L80.6268 43.6C80.1708 44.608 79.5348 45.604 78.7188 46.588C77.9028 47.572 76.9908 48.376 75.9828 49C74.9988 49.624 73.9788 49.936 72.9228 49.936Z" fill="#404040"/>
<path d="M80.8622 59.08C80.2622 59.08 79.7222 58.912 79.2422 58.576C78.7622 58.24 78.5222 57.724 78.5222 57.028C78.5222 56.26 78.7262 55.576 79.1342 54.976C79.5422 54.376 80.0822 53.812 80.7542 53.284C81.4262 52.78 82.1822 52.3 83.0222 51.844C83.8622 51.412 84.7142 50.992 85.5782 50.584C85.8902 49.744 86.2142 48.784 86.5502 47.704C86.8862 46.624 87.1982 45.496 87.4862 44.32C86.7182 45.496 85.9022 46.516 85.0382 47.38C84.1742 48.244 83.2502 48.676 82.2662 48.676C81.8102 48.676 81.3542 48.58 80.8982 48.388C80.4422 48.172 80.0582 47.848 79.7462 47.416C79.4582 46.984 79.3142 46.42 79.3142 45.724C79.3142 45.076 79.4222 44.308 79.6382 43.42C79.8782 42.532 80.1662 41.668 80.5022 40.828C80.8382 39.964 81.1862 39.256 81.5462 38.704C81.9302 38.152 82.2542 37.876 82.5182 37.876C82.6382 37.876 82.8302 37.924 83.0942 38.02C83.3582 38.092 83.6102 38.2 83.8502 38.344C84.0902 38.488 84.2222 38.644 84.2462 38.812C84.0302 39.124 83.7902 39.568 83.5262 40.144C83.2622 40.696 82.9982 41.32 82.7342 42.016C82.4942 42.712 82.2902 43.384 82.1222 44.032C81.9542 44.68 81.8702 45.244 81.8702 45.724C81.8702 46.132 81.9542 46.468 82.1222 46.732C82.3142 46.996 82.6382 47.128 83.0942 47.128C83.5742 47.128 84.0902 46.912 84.6422 46.48C85.2182 46.024 85.7822 45.46 86.3342 44.788C86.8862 44.092 87.4022 43.36 87.8822 42.592C87.9302 42.376 87.9782 42.112 88.0262 41.8C88.0982 41.488 88.1702 41.176 88.2422 40.864C88.3382 40.504 88.5182 40.12 88.7822 39.712C89.0702 39.304 89.5142 39.1 90.1142 39.1C90.2582 39.1 90.3902 39.112 90.5102 39.136C90.6542 39.136 90.8102 39.16 90.9782 39.208C90.9782 39.592 90.8582 40.312 90.6182 41.368C90.4022 42.4 90.0782 43.612 89.6462 45.004C89.2382 46.372 88.7582 47.776 88.2062 49.216C89.2862 48.784 90.3662 48.088 91.4462 47.128C92.5502 46.144 93.4382 44.8 94.1102 43.096L94.6142 43.528C94.2542 44.68 93.7022 45.688 92.9582 46.552C92.2382 47.416 91.4222 48.16 90.5102 48.784C89.5982 49.408 88.6862 49.924 87.7742 50.332C87.1502 51.868 86.4662 53.296 85.7222 54.616C84.9782 55.96 84.1982 57.04 83.3822 57.856C82.5662 58.672 81.7262 59.08 80.8622 59.08ZM80.6102 57.856C80.9942 57.856 81.6062 57.376 82.4462 56.416C83.2862 55.48 84.1742 53.896 85.1102 51.664C84.1982 52.144 83.3222 52.636 82.4822 53.14C81.6662 53.668 81.0062 54.232 80.5022 54.832C79.9982 55.432 79.7462 56.092 79.7462 56.812C79.7462 57.028 79.8062 57.256 79.9262 57.496C80.0702 57.736 80.2982 57.856 80.6102 57.856Z" fill="#404040"/>
</svg>
