<svg width="20" height="38" viewBox="0 0 20 38" fill="none" xmlns="http://www.w3.org/2000/svg">
<path d="M1.39664 7.79203e-05C1.57999 -6.01907e-06 1.76157 0.0365044 1.931 0.107519C2.10043 0.178533 2.25438 0.282667 2.38408 0.413965L19.5913 17.8461C19.853 18.1113 20 18.4709 20 18.8459C20 19.2209 19.853 19.5806 19.5913 19.8458L2.38408 37.2779C2.25447 37.4093 2.10059 37.5135 1.93122 37.5846C1.76185 37.6557 1.58031 37.6923 1.39697 37.6924C1.21363 37.6924 1.03207 37.6559 0.862671 37.5849C0.69327 37.5138 0.539335 37.4097 0.409662 37.2784C0.279989 37.1471 0.177118 36.9912 0.106916 36.8196C0.0367145 36.648 0.000556838 36.4641 0.000512953 36.2784C0.000470975 36.0927 0.0365408 35.9088 0.106663 35.7372C0.176784 35.5656 0.279588 35.4096 0.409199 35.2783L16.6299 18.8464L0.409196 2.41456C0.213834 2.21678 0.080775 1.96474 0.0268561 1.69033C-0.0270608 1.41592 0.000584267 1.13148 0.106297 0.872991C0.212008 0.614504 0.391039 0.393591 0.620728 0.238207C0.850417 0.0828226 1.12044 -4.79406e-05 1.39664 7.79203e-05Z" fill="#5B9ED9"/>
</svg>
