<svg width="31" height="31" viewBox="0 0 31 31" fill="none" xmlns="http://www.w3.org/2000/svg">
<path d="M15.0762 0C6.74898 0 0 6.74898 0 15.0762C0 23.4034 6.74898 30.1524 15.0762 30.1524C23.4034 30.1524 30.1523 23.4034 30.1523 15.0762C30.1523 6.74892 23.4034 0 15.0762 0ZM15.0762 28.9463C7.42856 28.9463 1.20609 22.7238 1.20609 15.0761C1.20609 7.42844 7.42856 1.20603 15.0762 1.20603C22.7238 1.20603 28.9462 7.4285 28.9462 15.0761C28.9462 22.7238 22.7238 28.9463 15.0762 28.9463Z" fill="#5B9ED9"/>
<path d="M22.8403 9.1543L12.7098 19.2854L7.31768 13.8945L6.46143 14.7508L12.7098 20.9979L23.6906 10.0106L22.8403 9.1543Z" fill="#5B9ED9"/>
</svg>
