<svg width="20" height="38" viewBox="0 0 20 38" fill="none" xmlns="http://www.w3.org/2000/svg">
<path d="M18.6034 37.6923C18.42 37.6924 18.2384 37.6559 18.069 37.5849C17.8996 37.5139 17.7456 37.4097 17.6159 37.2784L0.408732 19.8463C0.147021 19.5811 0 19.2214 0 18.8464C0 18.4715 0.147021 18.1118 0.408732 17.8466L17.6159 0.414475C17.7455 0.283114 17.8994 0.178901 18.0688 0.107785C18.2381 0.0366692 18.4197 4.38166e-05 18.603 3.92908e-08C18.7864 -4.37381e-05 18.9679 0.0364951 19.1373 0.10753C19.3067 0.178565 19.4607 0.282705 19.5903 0.414004C19.72 0.545303 19.8229 0.70119 19.8931 0.872764C19.9633 1.04434 19.9994 1.22824 19.9995 1.41397C19.9995 1.5997 19.9635 1.78362 19.8933 1.95522C19.8232 2.12683 19.7204 2.28277 19.5908 2.41413L3.37013 18.846L19.5908 35.2778C19.7862 35.4756 19.9192 35.7276 19.9731 36.0021C20.0271 36.2765 19.9994 36.5609 19.8937 36.8194C19.788 37.0779 19.609 37.2988 19.3793 37.4542C19.1496 37.6096 18.8796 37.6924 18.6034 37.6923Z" fill="#5B9ED9"/>
</svg>
